<?xml version="1.0" encoding="UTF-8" standalone="no"?>
<svg
   xmlns:dc="http://purl.org/dc/elements/1.1/"
   xmlns:cc="http://creativecommons.org/ns#"
   xmlns:rdf="http://www.w3.org/1999/02/22-rdf-syntax-ns#"
   xmlns:svg="http://www.w3.org/2000/svg"
   xmlns="http://www.w3.org/2000/svg"
   xmlns:sodipodi="http://sodipodi.sourceforge.net/DTD/sodipodi-0.dtd"
   xmlns:inkscape="http://www.inkscape.org/namespaces/inkscape"
   version="1.1"
   id="svg2"
   xml:space="preserve"
   width="476"
   height="480"
   viewBox="0 0 476 480"
   sodipodi:docname="Genability_logo.ai"><metadata
     id="metadata8"><rdf:RDF><cc:Work
         rdf:about=""><dc:format>image/svg+xml</dc:format><dc:type
           rdf:resource="http://purl.org/dc/dcmitype/StillImage" /></cc:Work></rdf:RDF></metadata><defs
     id="defs6" /><sodipodi:namedview
     pagecolor="#ffffff"
     bordercolor="#666666"
     borderopacity="1"
     objecttolerance="10"
     gridtolerance="10"
     guidetolerance="10"
     inkscape:pageopacity="0"
     inkscape:pageshadow="2"
     inkscape:window-width="640"
     inkscape:window-height="480"
     id="namedview4" /><g
     id="g10"
     inkscape:groupmode="layer"
     inkscape:label="Genability_logo"
     transform="matrix(1.3333333,0,0,-1.3333333,0,480)"><g
       id="g12"
       transform="translate(62.0796,318.5513)"><path
         d="m 0,0 6.513,6.523 h -29.612 v -29.615 l 6.513,6.513 H 0 Z"
         style="fill:#46beeb;fill-opacity:1;fill-rule:nonzero;stroke:none"
         id="path14" /></g><g
       id="g16"
       transform="translate(141.939,322.7837)"><path
         d="m 0,0 8.914,2.394 -25.658,14.81 -14.809,-25.658 8.907,2.394 14.338,-8.293 z"
         style="fill:#46beeb;fill-opacity:1;fill-rule:nonzero;stroke:none"
         id="path18" /></g><g
       id="g20"
       transform="translate(101.1079,320.5781)"><path
         d="m 0,0 7.983,4.614 -28.608,7.665 -7.673,-28.605 7.986,4.6 16.009,-4.286 z"
         style="fill:#46beeb;fill-opacity:1;fill-rule:nonzero;stroke:none"
         id="path22" /></g><g
       id="g24"
       transform="translate(189.7563,325.0601)"><path
         d="M 0,0 H 9.214 L -11.719,20.94 -32.659,0 h 9.207 l 11.733,-11.733 z"
         style="fill:#46beeb;fill-opacity:1;fill-rule:nonzero;stroke:none"
         id="path26" /></g><g
       id="g28"
       transform="translate(294.0273,318.5513)"><path
         d="m 0,0 -6.509,6.523 h 29.611 v -29.615 l -6.523,6.513 H 0 Z"
         style="fill:#46beeb;fill-opacity:1;fill-rule:nonzero;stroke:none"
         id="path30" /></g><g
       id="g32"
       transform="translate(284.4424,292.3906)"><path
         d="m 0,0 v -25.925 l -5.702,5.706 h -14.51 v 14.51 L -25.921,0 Z"
         style="fill:#46beeb;fill-opacity:1;fill-rule:nonzero;stroke:none"
         id="path34" /></g><g
       id="g36"
       transform="translate(257.8931,265.8232)"><path
         d="m 0,0 v -22.239 l -4.907,4.896 h -12.45 V -4.896 L -22.246,0 Z"
         style="fill:#46beeb;fill-opacity:1;fill-rule:nonzero;stroke:none"
         id="path38" /></g><g
       id="g40"
       transform="translate(234.7051,242.6426)"><path
         d="m 0,0 v -18.556 l -4.086,4.089 H -14.481 V -4.083 L -18.553,0 Z"
         style="fill:#46beeb;fill-opacity:1;fill-rule:nonzero;stroke:none"
         id="path42" /></g><g
       id="g44"
       transform="translate(201.2114,217.4849)"><path
         d="m 0,0 -3.276,3.269 h 14.859 v -14.87 L 8.321,-8.336 H 0 Z"
         style="fill:#46beeb;fill-opacity:1;fill-rule:nonzero;stroke:none"
         id="path46" /></g><g
       id="g48"
       transform="translate(71.6538,292.3906)"><path
         d="m 0,0 v -25.925 l 5.709,5.706 h 14.51 v 14.51 L 25.936,0 Z"
         style="fill:#46beeb;fill-opacity:1;fill-rule:nonzero;stroke:none"
         id="path50" /></g><g
       id="g52"
       transform="translate(152.9014,313.9766)"><path
         d="m 0,0 -12.968,-22.457 7.801,2.092 12.568,-7.262 7.258,12.578 7.8,2.081 z"
         style="fill:#46beeb;fill-opacity:1;fill-rule:nonzero;stroke:none"
         id="path54" /></g><g
       id="g56"
       transform="translate(108.9731,302.0503)"><path
         d="m 0,0 -6.702,-25.05 6.987,4.036 14.01,-3.761 3.768,14.013 6.987,4.039 z"
         style="fill:#46beeb;fill-opacity:1;fill-rule:nonzero;stroke:none"
         id="path58" /></g><g
       id="g60"
       transform="translate(203.2344,313.9766)"><path
         d="m 0,0 12.958,-22.457 -7.791,2.092 -12.579,-7.262 -7.251,12.578 -7.804,2.081 z"
         style="fill:#46beeb;fill-opacity:1;fill-rule:nonzero;stroke:none"
         id="path62" /></g><g
       id="g64"
       transform="translate(247.1587,302.0503)"><path
         d="m 0,0 6.709,-25.05 -6.998,4.036 -14.013,-3.761 -3.747,14.013 -6.994,4.039 z"
         style="fill:#46beeb;fill-opacity:1;fill-rule:nonzero;stroke:none"
         id="path66" /></g><g
       id="g68"
       transform="translate(284.4282,79.6201)"><path
         d="m 0,0 h -25.929 l 5.71,5.717 V 20.226 H -5.71 L 0,25.925 Z"
         style="fill:#46beeb;fill-opacity:1;fill-rule:nonzero;stroke:none"
         id="path70" /></g><g
       id="g72"
       transform="translate(306.0176,211.1758)"><path
         d="m 0,0 -22.453,12.968 2.077,-7.808 -7.259,-12.568 12.569,-7.251 2.091,-7.805 z"
         style="fill:#46beeb;fill-opacity:1;fill-rule:nonzero;stroke:none"
         id="path74" /></g><g
       id="g76"
       transform="translate(294.0771,255.1108)"><path
         d="m 0,0 -25.036,6.709 4.032,-7.001 -3.761,-14.01 14.017,-3.758 4.043,-7.002 z"
         style="fill:#46beeb;fill-opacity:1;fill-rule:nonzero;stroke:none"
         id="path78" /></g><g
       id="g80"
       transform="translate(306.0176,160.8457)"><path
         d="m 0,0 -22.453,-12.96 2.077,7.8 -7.259,12.568 12.569,7.252 2.091,7.789 z"
         style="fill:#46beeb;fill-opacity:1;fill-rule:nonzero;stroke:none"
         id="path82" /></g><g
       id="g84"
       transform="translate(294.0771,116.9248)"><path
         d="m 0,0 -25.036,-6.719 4.032,6.994 -3.761,14.02 14.017,3.755 4.043,6.993 z"
         style="fill:#46beeb;fill-opacity:1;fill-rule:nonzero;stroke:none"
         id="path86" /></g><g
       id="g88"
       transform="translate(71.6538,79.6201)"><path
         d="m 0,0 v 25.925 l 5.709,-5.699 h 14.51 V 5.717 L 25.936,0 Z"
         style="fill:#46beeb;fill-opacity:1;fill-rule:nonzero;stroke:none"
         id="path90" /></g><g
       id="g92"
       transform="translate(50.0967,160.8457)"><path
         d="m 0,0 22.457,-12.96 -2.078,7.8 7.252,12.568 -12.583,7.252 -2.084,7.789 z"
         style="fill:#46beeb;fill-opacity:1;fill-rule:nonzero;stroke:none"
         id="path94" /></g><g
       id="g96"
       transform="translate(62.0332,116.9248)"><path
         d="m 0,0 25.037,-6.733 -4.022,6.994 3.75,14.028 -14.024,3.761 -4.039,6.987 z"
         style="fill:#46beeb;fill-opacity:1;fill-rule:nonzero;stroke:none"
         id="path98" /></g><g
       id="g100"
       transform="translate(50.0967,211.1758)"><path
         d="M 0,0 22.457,12.968 20.379,5.16 27.631,-7.408 15.048,-14.659 12.964,-22.464 Z"
         style="fill:#46beeb;fill-opacity:1;fill-rule:nonzero;stroke:none"
         id="path102" /></g><g
       id="g104"
       transform="translate(62.0332,255.1108)"><path
         d="m 0,0 25.037,6.709 -4.022,-7.001 3.75,-14.01 -14.024,-3.758 -4.039,-7.002 z"
         style="fill:#46beeb;fill-opacity:1;fill-rule:nonzero;stroke:none"
         id="path106" /></g><g
       id="g108"
       transform="translate(152.9014,57.9414)"><path
         d="m 0,0 -12.968,22.464 7.801,-2.095 12.568,7.265 7.258,-12.575 7.8,-2.08 z"
         style="fill:#46beeb;fill-opacity:1;fill-rule:nonzero;stroke:none"
         id="path110" /></g><g
       id="g112"
       transform="translate(108.9731,69.8779)"><path
         d="m 0,0 -6.702,25.043 6.987,-4.032 14.01,3.765 3.768,-14.024 6.987,-4.043 z"
         style="fill:#46beeb;fill-opacity:1;fill-rule:nonzero;stroke:none"
         id="path114" /></g><g
       id="g116"
       transform="translate(203.2344,57.9414)"><path
         d="m 0,0 12.958,22.464 -7.791,-2.095 -12.579,7.265 -7.251,-12.575 -7.804,-2.08 z"
         style="fill:#46beeb;fill-opacity:1;fill-rule:nonzero;stroke:none"
         id="path118" /></g><g
       id="g120"
       transform="translate(247.1587,69.8779)"><path
         d="m 0,0 6.709,25.043 -6.998,-4.032 -14.013,3.765 -3.747,-14.024 -6.994,-4.043 z"
         style="fill:#46beeb;fill-opacity:1;fill-rule:nonzero;stroke:none"
         id="path122" /></g><g
       id="g124"
       transform="translate(98.2178,265.8232)"><path
         d="m 0,0 v -22.239 l 4.896,4.896 H 17.35 V -4.896 L 22.246,0 Z"
         style="fill:#46beeb;fill-opacity:1;fill-rule:nonzero;stroke:none"
         id="path126" /></g><g
       id="g128"
       transform="translate(136.7998,278.6841)"><path
         d="m 0,0 -8.514,-20.547 6.412,2.648 11.495,-4.775 4.76,11.512 6.395,2.651 z"
         style="fill:#46beeb;fill-opacity:1;fill-rule:nonzero;stroke:none"
         id="path130" /></g><g
       id="g132"
       transform="translate(178.0376,284.8467)"><path
         d="m 0,0 -15.73,-15.733 h 6.923 L 0,-24.547 l 8.807,8.814 h 6.923 z"
         style="fill:#46beeb;fill-opacity:1;fill-rule:nonzero;stroke:none"
         id="path134" /></g><g
       id="g136"
       transform="translate(98.2178,106.1553)"><path
         d="M 0,0 V 22.239 L 4.896,17.343 H 17.35 V 4.899 L 22.246,0 Z"
         style="fill:#46beeb;fill-opacity:1;fill-rule:nonzero;stroke:none"
         id="path138" /></g><g
       id="g140"
       transform="translate(136.7998,93.3018)"><path
         d="m 0,0 -8.514,20.54 6.412,-2.641 11.495,4.753 4.76,-11.497 6.395,-2.648 z"
         style="fill:#46beeb;fill-opacity:1;fill-rule:nonzero;stroke:none"
         id="path142" /></g><g
       id="g144"
       transform="translate(178.0376,87.1353)"><path
         d="m 0,0 -15.73,15.723 h 6.923 L 0,24.537 8.807,15.723 h 6.923 z"
         style="fill:#46beeb;fill-opacity:1;fill-rule:nonzero;stroke:none"
         id="path146" /></g><g
       id="g148"
       transform="translate(219.3354,278.6841)"><path
         d="m 0,0 8.514,-20.547 -6.405,2.648 -11.498,-4.775 -4.767,11.512 -6.395,2.651 z"
         style="fill:#46beeb;fill-opacity:1;fill-rule:nonzero;stroke:none"
         id="path150" /></g><g
       id="g152"
       transform="translate(257.9253,106.1553)"><path
         d="M 0,0 V 22.239 L -4.9,17.343 H -17.343 V 4.899 L -22.253,0 Z"
         style="fill:#46beeb;fill-opacity:1;fill-rule:nonzero;stroke:none"
         id="path154" /></g><g
       id="g156"
       transform="translate(219.3354,93.3018)"><path
         d="M 0,0 8.514,20.54 2.109,17.899 -9.389,22.652 -14.156,11.155 -20.551,8.507 Z"
         style="fill:#46beeb;fill-opacity:1;fill-rule:nonzero;stroke:none"
         id="path158" /></g><g
       id="g160"
       transform="translate(85.3853,144.7305)"><path
         d="M 0,0 20.537,-8.515 17.899,-2.116 22.66,9.385 11.155,14.142 8.5,20.54 Z"
         style="fill:#46beeb;fill-opacity:1;fill-rule:nonzero;stroke:none"
         id="path162" /></g><g
       id="g164"
       transform="translate(79.2119,185.9609)"><path
         d="m 0,0 15.741,-15.734 v 6.927 L 24.537,0 15.741,8.807 v 6.922 z"
         style="fill:#46beeb;fill-opacity:1;fill-rule:nonzero;stroke:none"
         id="path166" /></g><g
       id="g168"
       transform="translate(270.7573,144.7305)"><path
         d="m 0,0 -20.53,-8.515 2.641,6.399 -4.767,11.501 11.501,4.757 2.644,6.398 z"
         style="fill:#46beeb;fill-opacity:1;fill-rule:nonzero;stroke:none"
         id="path170" /></g><g
       id="g172"
       transform="translate(276.9272,185.9609)"><path
         d="m 0,0 -15.723,-15.734 v 6.927 L -24.537,0 l 8.814,8.807 v 6.922 z"
         style="fill:#46beeb;fill-opacity:1;fill-rule:nonzero;stroke:none"
         id="path174" /></g><g
       id="g176"
       transform="translate(85.3853,227.2622)"><path
         d="M 0,0 20.537,8.504 17.899,2.105 22.66,-9.392 11.155,-14.167 8.5,-20.555 Z"
         style="fill:#46beeb;fill-opacity:1;fill-rule:nonzero;stroke:none"
         id="path178" /></g><g
       id="g180"
       transform="translate(270.7573,227.2622)"><path
         d="m 0,0 -20.53,8.504 2.641,-6.399 -4.767,-11.497 11.501,-4.775 2.644,-6.388 z"
         style="fill:#46beeb;fill-opacity:1;fill-rule:nonzero;stroke:none"
         id="path182" /></g><g
       id="g184"
       transform="translate(121.4058,242.6426)"><path
         d="m 0,0 v -18.556 l 4.082,4.089 H 14.466 V -4.083 L 18.556,0 Z"
         style="fill:#46beeb;fill-opacity:1;fill-rule:nonzero;stroke:none"
         id="path186" /></g><g
       id="g188"
       transform="translate(158.3179,255.6782)"><path
         d="m 0,0 -7.094,-17.146 5.324,2.219 9.614,-3.99 3.968,9.614 5.342,2.212 z"
         style="fill:#46beeb;fill-opacity:1;fill-rule:nonzero;stroke:none"
         id="path190" /></g><g
       id="g192"
       transform="translate(197.9209,255.6782)"><path
         d="m 0,0 7.094,-17.146 -5.338,2.219 -9.596,-3.99 -3.965,9.614 -5.349,2.212 z"
         style="fill:#46beeb;fill-opacity:1;fill-rule:nonzero;stroke:none"
         id="path194" /></g><g
       id="g196"
       transform="translate(234.7051,129.4038)"><path
         d="M 0,0 V 18.56 L -4.086,14.481 H -14.481 V 4.079 L -18.553,0 Z"
         style="fill:#46beeb;fill-opacity:1;fill-rule:nonzero;stroke:none"
         id="path198" /></g><g
       id="g200"
       transform="translate(121.4058,129.4038)"><path
         d="M 0,0 V 18.56 L 4.082,14.481 H 14.466 V 4.079 L 18.556,0 Z"
         style="fill:#46beeb;fill-opacity:1;fill-rule:nonzero;stroke:none"
         id="path202" /></g><g
       id="g204"
       transform="translate(158.3179,116.3682)"><path
         d="M 0,0 -7.094,17.143 -1.77,14.938 7.844,18.91 11.812,9.314 17.154,7.108 Z"
         style="fill:#46beeb;fill-opacity:1;fill-rule:nonzero;stroke:none"
         id="path206" /></g><g
       id="g208"
       transform="translate(197.9209,116.3682)"><path
         d="M 0,0 7.094,17.143 1.756,14.938 -7.84,18.91 -11.805,9.314 -17.154,7.108 Z"
         style="fill:#46beeb;fill-opacity:1;fill-rule:nonzero;stroke:none"
         id="path210" /></g><g
       id="g212"
       transform="translate(247.7798,205.8262)"><path
         d="m 0,0 -17.157,7.105 2.216,-5.338 -3.968,-9.596 9.602,-3.989 2.199,-5.321 z"
         style="fill:#46beeb;fill-opacity:1;fill-rule:nonzero;stroke:none"
         id="path214" /></g><g
       id="g216"
       transform="translate(247.7798,166.2378)"><path
         d="m 0,0 -17.157,-7.101 2.216,5.334 -3.968,9.593 9.602,3.975 2.199,5.342 z"
         style="fill:#46beeb;fill-opacity:1;fill-rule:nonzero;stroke:none"
         id="path218" /></g><g
       id="g220"
       transform="translate(108.4595,205.8262)"><path
         d="M 0,0 17.15,7.105 14.937,1.767 18.913,-7.829 9.32,-11.818 7.108,-17.139 Z"
         style="fill:#46beeb;fill-opacity:1;fill-rule:nonzero;stroke:none"
         id="path222" /></g><g
       id="g224"
       transform="translate(108.4595,166.2378)"><path
         d="m 0,0 17.15,-7.101 -2.213,5.334 3.976,9.593 -9.593,3.975 -2.212,5.342 z"
         style="fill:#46beeb;fill-opacity:1;fill-rule:nonzero;stroke:none"
         id="path226" /></g><g
       id="g228"
       transform="translate(154.8994,217.4849)"><path
         d="m 0,0 3.265,3.269 h -14.859 v -14.87 l 3.265,3.265 H 0 Z"
         style="fill:#46beeb;fill-opacity:1;fill-rule:nonzero;stroke:none"
         id="path230" /></g><g
       id="g232"
       transform="translate(183.9326,220.7783)"><path
         d="M 0,0 H 4.625 L -5.895,10.513 -16.415,0 h 4.639 l 5.881,-5.892 z"
         style="fill:#46beeb;fill-opacity:1;fill-rule:nonzero;stroke:none"
         id="path234" /></g><g
       id="g236"
       transform="translate(172.1782,151.2466)"><path
         d="M 0,0 H -4.614 L 5.895,-10.52 16.408,0 H 11.783 L 5.895,5.888 Z"
         style="fill:#46beeb;fill-opacity:1;fill-rule:nonzero;stroke:none"
         id="path238" /></g><g
       id="g240"
       transform="translate(212.8374,180.1191)"><path
         d="M 0,0 0.007,-4.614 10.52,5.892 0.007,16.397 V 11.779 L -5.881,5.892 Z"
         style="fill:#46beeb;fill-opacity:1;fill-rule:nonzero;stroke:none"
         id="path242" /></g><g
       id="g244"
       transform="translate(143.3125,191.8984)"><path
         d="M 0,0 -0.007,4.618 -10.513,-5.888 -0.007,-16.393 v 4.614 l 5.884,5.891 z"
         style="fill:#46beeb;fill-opacity:1;fill-rule:nonzero;stroke:none"
         id="path246" /></g><g
       id="g248"
       transform="translate(201.2114,154.4902)"><path
         d="m 0,0 -3.276,-3.272 h 14.859 v 14.87 L 8.321,8.322 H 0 Z"
         style="fill:#46beeb;fill-opacity:1;fill-rule:nonzero;stroke:none"
         id="path250" /></g><g
       id="g252"
       transform="translate(154.8994,154.4902)"><path
         d="m 0,0 3.265,-3.272 h -14.859 v 14.87 L -8.329,8.322 H 0 Z"
         style="fill:#46beeb;fill-opacity:1;fill-rule:nonzero;stroke:none"
         id="path254" /></g><g
       id="g256"
       transform="translate(214.1611,322.7837)"><path
         d="M 0,0 -8.899,2.394 16.747,17.204 31.563,-8.454 22.664,-6.06 8.29,-14.353 Z"
         style="fill:#46beeb;fill-opacity:1;fill-rule:nonzero;stroke:none"
         id="path258" /></g><g
       id="g260"
       transform="translate(254.999,320.5781)"><path
         d="m 0,0 -7.983,4.614 28.608,7.665 7.662,-28.605 -7.979,4.6 -16.023,-4.286 z"
         style="fill:#46beeb;fill-opacity:1;fill-rule:nonzero;stroke:none"
         id="path262" /></g><g
       id="g264"
       transform="translate(294.0273,53.4307)"><path
         d="M 0,0 -6.509,-6.505 H 23.102 V 23.099 L 16.579,16.58 H 0 Z"
         style="fill:#46beeb;fill-opacity:1;fill-rule:nonzero;stroke:none"
         id="path266" /></g><g
       id="g268"
       transform="translate(214.1611,49.1992)"><path
         d="M 0,0 -8.899,-2.395 16.747,-17.197 31.563,8.453 22.664,6.069 8.29,14.352 Z"
         style="fill:#46beeb;fill-opacity:1;fill-rule:nonzero;stroke:none"
         id="path270" /></g><g
       id="g272"
       transform="translate(254.999,51.418)"><path
         d="m 0,0 -7.983,-4.613 28.608,-7.666 7.662,28.598 -7.979,-4.603 -16.023,4.289 z"
         style="fill:#46beeb;fill-opacity:1;fill-rule:nonzero;stroke:none"
         id="path274" /></g><g
       id="g276"
       transform="translate(166.354,46.9365)"><path
         d="M 0,0 H -9.214 L 11.737,-20.937 32.677,0 H 23.459 L 11.737,11.722 Z"
         style="fill:#46beeb;fill-opacity:1;fill-rule:nonzero;stroke:none"
         id="path278" /></g><g
       id="g280"
       transform="translate(68.5923,46.9258)"><path
         d="m 0,0 h -29.611 v 29.604 l 6.512,-6.52 h 16.586"
         style="fill:#46beeb;fill-opacity:1;fill-rule:nonzero;stroke:none"
         id="path282" /></g><g
       id="g284"
       transform="translate(141.939,49.1992)"><path
         d="m 0,0 8.914,-2.395 -25.658,-14.802 -14.809,25.65 8.907,-2.384 14.338,8.283 z"
         style="fill:#46beeb;fill-opacity:1;fill-rule:nonzero;stroke:none"
         id="path286" /></g><g
       id="g288"
       transform="translate(101.1079,51.418)"><path
         d="m 0,0 7.983,-4.613 -28.608,-7.666 -7.673,28.598 7.986,-4.603 16.009,4.289 z"
         style="fill:#46beeb;fill-opacity:1;fill-rule:nonzero;stroke:none"
         id="path290" /></g><g
       id="g292"
       transform="translate(314.8457,222.1162)"><path
         d="M 0,0 2.391,-8.91 17.186,16.729 -8.457,31.553 -6.066,22.642 -14.352,8.29 Z"
         style="fill:#46beeb;fill-opacity:1;fill-rule:nonzero;stroke:none"
         id="path294" /></g><g
       id="g296"
       transform="translate(312.6333,262.9399)"><path
         d="m 0,0 4.611,-7.976 7.672,28.605 -28.612,7.662 4.618,-7.972 -4.305,-16.023 z"
         style="fill:#46beeb;fill-opacity:1;fill-rule:nonzero;stroke:none"
         id="path298" /></g><g
       id="g300"
       transform="translate(317.1011,174.2988)"><path
         d="M 0,0 V -9.221 L 20.955,11.73 0,32.669 V 23.456 L -11.712,11.73 Z"
         style="fill:#46beeb;fill-opacity:1;fill-rule:nonzero;stroke:none"
         id="path302" /></g><g
       id="g304"
       transform="translate(314.8457,149.8657)"><path
         d="m 0,0 2.391,8.911 14.795,-25.637 -25.643,-14.809 2.391,8.893 -8.286,14.37 z"
         style="fill:#46beeb;fill-opacity:1;fill-rule:nonzero;stroke:none"
         id="path306" /></g><g
       id="g308"
       transform="translate(312.6333,109.0459)"><path
         d="m 0,0 4.611,7.993 7.672,-28.612 -28.612,-7.676 4.618,7.98 -4.305,16.029 z"
         style="fill:#46beeb;fill-opacity:1;fill-rule:nonzero;stroke:none"
         id="path310" /></g><g
       id="g312"
       transform="translate(41.2432,149.8657)"><path
         d="m 0,0 -2.369,8.911 -14.824,-25.637 25.672,-14.809 -2.395,8.893 8.283,14.37 z"
         style="fill:#46beeb;fill-opacity:1;fill-rule:nonzero;stroke:none"
         id="path314" /></g><g
       id="g316"
       transform="translate(43.4663,109.0459)"><path
         d="m 0,0 -4.618,7.993 -7.647,-28.612 28.601,-7.676 -4.61,7.98 4.286,16.029 z"
         style="fill:#46beeb;fill-opacity:1;fill-rule:nonzero;stroke:none"
         id="path318" /></g><g
       id="g320"
       transform="translate(38.9878,197.6938)"><path
         d="M 0,0 V 9.221 L -20.947,-11.723 0,-32.673 v 9.225 l 11.726,11.725 z"
         style="fill:#46beeb;fill-opacity:1;fill-rule:nonzero;stroke:none"
         id="path322" /></g><g
       id="g324"
       transform="translate(41.2432,222.1162)"><path
         d="M 0,0 -2.369,-8.91 -17.193,16.729 8.479,31.553 6.084,22.642 14.367,8.29 Z"
         style="fill:#46beeb;fill-opacity:1;fill-rule:nonzero;stroke:none"
         id="path326" /></g><g
       id="g328"
       transform="translate(43.4663,262.9399)"><path
         d="m 0,0 -4.618,-7.976 -7.647,28.605 28.601,7.662 -4.61,-7.972 4.286,-16.023 z"
         style="fill:#46beeb;fill-opacity:1;fill-rule:nonzero;stroke:none"
         id="path330" /></g></g></svg>
